<mxfile host="app.diagrams.net" modified="2022-06-01T16:25:44.448Z" agent="5.0 (Windows NT 10.0; Win64; x64) AppleWebKit/537.36 (KHTML, like Gecko) Chrome/102.0.0.0 Safari/537.36" etag="Kc2jZR8mXmdlAB6WLUY8" version="18.2.0" type="github">
  <diagram id="qQHj0DCXs-47OqAVF7OY" name="第 1 页">
    <mxGraphModel dx="1186" dy="881" grid="1" gridSize="10" guides="1" tooltips="1" connect="1" arrows="1" fold="1" page="1" pageScale="1" pageWidth="827" pageHeight="1169" math="0" shadow="0">
      <root>
        <mxCell id="0" />
        <mxCell id="1" parent="0" />
        <mxCell id="zWzPF-e7GP1ntmKaY90L-40" value="" style="edgeStyle=orthogonalEdgeStyle;rounded=0;orthogonalLoop=1;jettySize=auto;html=1;" edge="1" parent="1" source="zWzPF-e7GP1ntmKaY90L-38" target="zWzPF-e7GP1ntmKaY90L-39">
          <mxGeometry relative="1" as="geometry" />
        </mxCell>
        <mxCell id="zWzPF-e7GP1ntmKaY90L-38" value="侦听" style="rounded=0;whiteSpace=wrap;html=1;" vertex="1" parent="1">
          <mxGeometry x="140" y="340" width="120" height="60" as="geometry" />
        </mxCell>
        <mxCell id="zWzPF-e7GP1ntmKaY90L-42" value="" style="edgeStyle=orthogonalEdgeStyle;rounded=0;orthogonalLoop=1;jettySize=auto;html=1;" edge="1" parent="1" source="zWzPF-e7GP1ntmKaY90L-39" target="zWzPF-e7GP1ntmKaY90L-41">
          <mxGeometry relative="1" as="geometry" />
        </mxCell>
        <mxCell id="zWzPF-e7GP1ntmKaY90L-39" value="可行性判断" style="rounded=0;whiteSpace=wrap;html=1;" vertex="1" parent="1">
          <mxGeometry x="340" y="340" width="120" height="60" as="geometry" />
        </mxCell>
        <mxCell id="zWzPF-e7GP1ntmKaY90L-41" value="攻击类型" style="whiteSpace=wrap;html=1;rounded=0;" vertex="1" parent="1">
          <mxGeometry x="510" y="340" width="120" height="60" as="geometry" />
        </mxCell>
        <mxCell id="zWzPF-e7GP1ntmKaY90L-45" value="&lt;div&gt;aoe&lt;/div&gt;&lt;div&gt;方向&lt;/div&gt;&lt;div&gt;&lt;br&gt;&lt;/div&gt;&lt;div&gt;自己&lt;/div&gt;&lt;div&gt;友军&lt;/div&gt;&lt;div&gt;敌人&lt;/div&gt;" style="shape=card;whiteSpace=wrap;html=1;size=20;" vertex="1" parent="1">
          <mxGeometry x="500" y="420" width="140" height="100" as="geometry" />
        </mxCell>
      </root>
    </mxGraphModel>
  </diagram>
</mxfile>
